<mxfile host="app.diagrams.net" modified="2023-08-11T16:40:51.690Z" agent="5.0 (Windows)" etag="BAEPI8xIB6brcGEcYFVd" version="20.8.20" type="github">
  <diagram name="Сторінка-1" id="cpyV3zWHaWB46OLJk9fb">
    <mxGraphModel dx="1221" dy="654" grid="1" gridSize="10" guides="1" tooltips="1" connect="1" arrows="1" fold="1" page="1" pageScale="1" pageWidth="827" pageHeight="1169" math="0" shadow="0">
      <root>
        <mxCell id="0" />
        <mxCell id="1" parent="0" />
      </root>
    </mxGraphModel>
  </diagram>
</mxfile>
